<?xml version="1.0" encoding="UTF-8"?>
<svg width="40px" height="303px" viewBox="0 0 40 303" version="1.1" xmlns="http://www.w3.org/2000/svg" xmlns:xlink="http://www.w3.org/1999/xlink">
    <!-- Generator: Sketch 46 (44423) - http://www.bohemiancoding.com/sketch -->
    <title>Page 1</title>
    <desc>Created with Sketch.</desc>
    <defs></defs>
    <g id="Page-1" stroke="none" stroke-width="1" fill="none" fill-rule="evenodd">
        <g id="Artboard-2" transform="translate(-716.000000, -765.000000)" stroke="#000000" stroke-width="1.043">
            <g id="Page-1" transform="translate(717.000000, 765.000000)">
                <path d="M19.5215,0.5 L19.5215,249.9795" id="Stroke-1"></path>
                <path d="M23.7748,255.9865 L14.7448,255.9865 C13.6968,255.9865 12.8398,255.1295 12.8398,254.0815 L12.8398,254.0815 C12.8398,253.0345 13.6968,252.1765 14.7448,252.1765 L23.7748,252.1765 C24.8228,252.1765 25.6798,253.0345 25.6798,254.0815 L25.6798,254.0815 C25.6798,255.1295 24.8228,255.9865 23.7748,255.9865 Z" id="Stroke-3"></path>
                <path d="M26.5055,258.8656 L12.1975,258.8656 C11.4055,258.8656 10.7575,258.2176 10.7575,257.4256 L10.7575,257.4256 C10.7575,256.6346 11.4055,255.9866 12.1975,255.9866 L26.5055,255.9866 C27.2975,255.9866 27.9455,256.6346 27.9455,257.4256 L27.9455,257.4256 C27.9455,258.2176 27.2975,258.8656 26.5055,258.8656 Z" id="Stroke-5"></path>
                <path d="M15.5557,251.9792 C16.0077,250.6272 17.5357,249.6322 19.3517,249.6322 C21.1667,249.6322 22.6937,250.6262 23.1467,251.9772" id="Stroke-7"></path>
                <path d="M26.4138,261.7447 L12.1058,261.7447 C11.3138,261.7447 10.6658,261.0967 10.6658,260.3047 L10.6658,260.3047 C10.6658,259.5137 11.3138,258.8657 12.1058,258.8657 L26.4138,258.8657 C27.2058,258.8657 27.8538,259.5137 27.8538,260.3047 L27.8538,260.3047 C27.8538,261.0967 27.2058,261.7447 26.4138,261.7447 Z" id="Stroke-9"></path>
                <path d="M26.4409,265.404 L12.4449,265.404 C11.5679,265.404 10.8489,264.686 10.8489,263.808 L10.8489,263.461 C10.8489,262.584 11.5679,261.866 12.4449,261.866 L26.4409,261.866 C27.3189,261.866 28.0369,262.584 28.0369,263.461 L28.0369,263.808 C28.0369,264.686 27.3189,265.404 26.4409,265.404 Z" id="Stroke-11"></path>
                <path d="M26.7982,265.3376 C33.6212,268.2106 38.4112,274.9596 38.4112,282.8266 C38.4112,293.3026 29.9192,301.7956 19.4432,301.7956 C8.9672,301.7956 0.4752,293.3026 0.4752,282.8266 C0.4752,274.8536 5.3952,268.0286 12.3642,265.2236" id="Stroke-13"></path>
                <path d="M16.8644,265.4034 L14.4654,282.8214 C14.4654,282.8214 14.0894,286.9304 11.8684,286.3634 C9.6474,285.7954 10.5454,283.5744 11.0654,283.2914 C11.5844,283.0074 12.1994,281.9684 15.5544,282.7244 C18.9094,283.4804 18.4364,286.4164 18.4364,286.4164 C18.4364,286.4164 17.8694,288.2064 16.0744,287.4494 C14.2784,286.6934 15.3174,284.8504 15.8374,284.5204 C16.3574,284.1894 17.3494,283.5274 19.5234,283.4804 C21.6974,283.4334 22.7844,284.3784 23.3984,285.5124 C24.0124,286.6464 22.7844,287.5394 21.9334,287.6364 C21.0834,287.7334 19.8544,287.1194 19.9494,285.7484 C20.0434,284.3784 21.2724,283.1494 22.9264,282.7244 C24.5804,282.2994 26.3284,282.2994 27.5574,283.0074 C28.7854,283.7164 28.3684,285.3784 27.5784,286.1794 C26.9264,286.8404 24.7214,286.8824 24.2964,283.6694 C23.9774,281.2614 22.3854,270.5974 21.6074,265.4044" id="Stroke-15"></path>
            </g>
        </g>
    </g>
</svg>