<?xml version="1.0" encoding="UTF-8"?>
<svg width="2069px" height="2796px" viewBox="0 0 2069 2796" version="1.1" xmlns="http://www.w3.org/2000/svg" xmlns:xlink="http://www.w3.org/1999/xlink">
    <!-- Generator: Sketch 46 (44423) - http://www.bohemiancoding.com/sketch -->
    <title>Group 6</title>
    <desc>Created with Sketch.</desc>
    <defs></defs>
    <g id="Page-1" stroke="none" stroke-width="1" fill="none" fill-rule="evenodd">
        <g id="Artboard-2" transform="translate(-2788.000000, -719.000000)">
            <g id="Group-6" transform="translate(1929.000000, 292.000000)">
                <path d="M1911.00072,1413.61906 C1780.98,1744.19767 1703.55577,2075.85596 1618.04213,2425.09809 C1528.68274,2790.04647 1481.70834,2894.56558 1479.64919,3241.26559 C1429.11045,3245.68716 1402.9422,3247.97658 1387.99928,3249.28392 C1417.3658,2919.46941 1451.19153,2812.72963 1546.44075,2421.3242 C1641.68997,2029.91876 1740.70239,1740.71885 1876.13391,1416.66951" id="Path" fill="#DCDCDC" transform="translate(1649.500000, 2331.451489) rotate(5.000000) translate(-1649.500000, -2331.451489) "></path>
                <g id="Group-3" transform="translate(2463.500000, 1369.000000) rotate(1.000000) translate(-2463.500000, -1369.000000) translate(1758.000000, 437.000000)">
                    <g id="Group-2" transform="translate(-0.000000, 0.000000)">
                        <g id="Group" transform="translate(0.056774, 0.505663)">
                            <polygon id="Path-2" fill="#DCDCDC" points="122 620 130 178 171 178 180 620"></polygon>
                            <path d="M153.413181,190.5 C108.742306,183.166667 79.7402024,166.833333 66.4068691,141.5 C46.4068691,103.5 246.406869,103.5 237.406869,141.5 C231.406869,166.833333 203.408973,183.166667 153.413181,190.5 Z" id="Path-3" fill="#DCDCDC"></path>
                            <path d="" id="Path-4" stroke="#979797"></path>
                            <path d="M91.3304462,193.682779 C77.1898212,185.198404 63.5205503,165.401529 50.3226337,134.292154 C37.124717,103.182779 32.4111753,62.6463202 36.1820087,12.6827785 L47.4945087,12.6827785 C49.3799253,59.8181952 59.2783628,97.9978827 77.1898212,127.221841 C95.1012795,156.445799 113.484092,171.057779 132.338259,171.057779 L91.3304462,193.682779 Z" id="Path-5" stroke="#DCDCDC" stroke-width="8" fill="#DCDCDC" transform="translate(83.631661, 103.182779) rotate(-26.000000) translate(-83.631661, -103.182779) "></path>
                            <path d="M234.148573,193.192428 C220.007948,184.708053 206.338677,164.911178 193.140761,133.801803 C179.942844,102.692428 175.229302,62.1559697 179.000136,12.1924281 L190.312636,12.1924281 C192.198052,59.3278447 202.09649,97.5075322 220.007948,126.731491 C237.919406,155.955449 256.302219,170.567428 275.156386,170.567428 L234.148573,193.192428 Z" id="Path-5" stroke="#DCDCDC" stroke-width="8" fill="#DCDCDC" transform="translate(226.449788, 102.692428) scale(-1, 1) rotate(-26.000000) translate(-226.449788, -102.692428) "></path>
                            <polygon id="Path-6" fill="#DCDCDC" transform="translate(93.115829, 64.952298) rotate(-10.000000) translate(-93.115829, -64.952298) " points="85.1158294 123.952298 67.1158294 9.9522975 85.1158294 5.9522975 119.115829 119.952298"></polygon>
                            <polygon id="Path-6" fill="#DCDCDC" transform="translate(211.850244, 64.618510) scale(-1, 1) rotate(-10.000000) translate(-211.850244, -64.618510) " points="203.850244 123.61851 185.850244 9.61851005 203.850244 5.61851005 237.850244 119.61851"></polygon>
                            <polygon id="Path-7" fill="#DCDCDC" points="136 117 143 0 159 0 166 117"></polygon>
                        </g>
                        <g id="Group" transform="translate(460.768810, 378.487126) rotate(22.000000) translate(-460.768810, -378.487126) translate(305.768810, 68.487126)">
                            <polygon id="Path-2" fill="#DCDCDC" points="122 620 130 178 171 178 180 620"></polygon>
                            <path d="M153.413181,190.5 C108.742306,183.166667 79.7402024,166.833333 66.4068691,141.5 C46.4068691,103.5 246.406869,103.5 237.406869,141.5 C231.406869,166.833333 203.408973,183.166667 153.413181,190.5 Z" id="Path-3" fill="#DCDCDC"></path>
                            <path d="" id="Path-4" stroke="#979797"></path>
                            <path d="M91.3304462,193.682779 C77.1898212,185.198404 63.5205503,165.401529 50.3226337,134.292154 C37.124717,103.182779 32.4111753,62.6463202 36.1820087,12.6827785 L47.4945087,12.6827785 C49.3799253,59.8181952 59.2783628,97.9978827 77.1898212,127.221841 C95.1012795,156.445799 113.484092,171.057779 132.338259,171.057779 L91.3304462,193.682779 Z" id="Path-5" stroke="#DCDCDC" stroke-width="8" fill="#DCDCDC" transform="translate(83.631661, 103.182779) rotate(-26.000000) translate(-83.631661, -103.182779) "></path>
                            <path d="M234.148573,193.192428 C220.007948,184.708053 206.338677,164.911178 193.140761,133.801803 C179.942844,102.692428 175.229302,62.1559697 179.000136,12.1924281 L190.312636,12.1924281 C192.198052,59.3278447 202.09649,97.5075322 220.007948,126.731491 C237.919406,155.955449 256.302219,170.567428 275.156386,170.567428 L234.148573,193.192428 Z" id="Path-5" stroke="#DCDCDC" stroke-width="8" fill="#DCDCDC" transform="translate(226.449788, 102.692428) scale(-1, 1) rotate(-26.000000) translate(-226.449788, -102.692428) "></path>
                            <polygon id="Path-6" fill="#DCDCDC" transform="translate(93.115829, 64.952298) rotate(-10.000000) translate(-93.115829, -64.952298) " points="85.1158294 123.952298 67.1158294 9.9522975 85.1158294 5.9522975 119.115829 119.952298"></polygon>
                            <polygon id="Path-6" fill="#DCDCDC" transform="translate(211.850244, 64.618510) scale(-1, 1) rotate(-10.000000) translate(-211.850244, -64.618510) " points="203.850244 123.61851 185.850244 9.61851005 203.850244 5.61851005 237.850244 119.61851"></polygon>
                            <polygon id="Path-7" fill="#DCDCDC" points="136 117 143 0 159 0 166 117"></polygon>
                        </g>
                        <g id="Group" transform="translate(708.667386, 554.841764) rotate(46.000000) translate(-708.667386, -554.841764) translate(553.667386, 244.841764)">
                            <polygon id="Path-2" fill="#DCDCDC" points="122 620 130 178 171 178 180 620"></polygon>
                            <path d="M153.413181,190.5 C108.742306,183.166667 79.7402024,166.833333 66.4068691,141.5 C46.4068691,103.5 246.406869,103.5 237.406869,141.5 C231.406869,166.833333 203.408973,183.166667 153.413181,190.5 Z" id="Path-3" fill="#DCDCDC"></path>
                            <path d="" id="Path-4" stroke="#979797"></path>
                            <path d="M91.3304462,193.682779 C77.1898212,185.198404 63.5205503,165.401529 50.3226337,134.292154 C37.124717,103.182779 32.4111753,62.6463202 36.1820087,12.6827785 L47.4945087,12.6827785 C49.3799253,59.8181952 59.2783628,97.9978827 77.1898212,127.221841 C95.1012795,156.445799 113.484092,171.057779 132.338259,171.057779 L91.3304462,193.682779 Z" id="Path-5" stroke="#DCDCDC" stroke-width="8" fill="#DCDCDC" transform="translate(83.631661, 103.182779) rotate(-26.000000) translate(-83.631661, -103.182779) "></path>
                            <path d="M234.148573,193.192428 C220.007948,184.708053 206.338677,164.911178 193.140761,133.801803 C179.942844,102.692428 175.229302,62.1559697 179.000136,12.1924281 L190.312636,12.1924281 C192.198052,59.3278447 202.09649,97.5075322 220.007948,126.731491 C237.919406,155.955449 256.302219,170.567428 275.156386,170.567428 L234.148573,193.192428 Z" id="Path-5" stroke="#DCDCDC" stroke-width="8" fill="#DCDCDC" transform="translate(226.449788, 102.692428) scale(-1, 1) rotate(-26.000000) translate(-226.449788, -102.692428) "></path>
                            <polygon id="Path-6" fill="#DCDCDC" transform="translate(93.115829, 64.952298) rotate(-10.000000) translate(-93.115829, -64.952298) " points="85.1158294 123.952298 67.1158294 9.9522975 85.1158294 5.9522975 119.115829 119.952298"></polygon>
                            <polygon id="Path-6" fill="#DCDCDC" transform="translate(211.850244, 64.618510) scale(-1, 1) rotate(-10.000000) translate(-211.850244, -64.618510) " points="203.850244 123.61851 185.850244 9.61851005 203.850244 5.61851005 237.850244 119.61851"></polygon>
                            <polygon id="Path-7" fill="#DCDCDC" points="136 117 143 0 159 0 166 117"></polygon>
                        </g>
                    </g>
                    <g id="Group-2" transform="translate(838.285696, 1240.110933) rotate(72.000000) translate(-838.285696, -1240.110933) translate(324.285696, 805.610933)">
                        <g id="Group">
                            <polygon id="Path-2" fill="#DCDCDC" points="122 620 130 178 171 178 180 620"></polygon>
                            <path d="M153.413181,190.5 C108.742306,183.166667 79.7402024,166.833333 66.4068691,141.5 C46.4068691,103.5 246.406869,103.5 237.406869,141.5 C231.406869,166.833333 203.408973,183.166667 153.413181,190.5 Z" id="Path-3" fill="#DCDCDC"></path>
                            <path d="" id="Path-4" stroke="#979797"></path>
                            <path d="M91.3304462,193.682779 C77.1898212,185.198404 63.5205503,165.401529 50.3226337,134.292154 C37.124717,103.182779 32.4111753,62.6463202 36.1820087,12.6827785 L47.4945087,12.6827785 C49.3799253,59.8181952 59.2783628,97.9978827 77.1898212,127.221841 C95.1012795,156.445799 113.484092,171.057779 132.338259,171.057779 L91.3304462,193.682779 Z" id="Path-5" stroke="#DCDCDC" stroke-width="8" fill="#DCDCDC" transform="translate(83.631661, 103.182779) rotate(-26.000000) translate(-83.631661, -103.182779) "></path>
                            <path d="M234.148573,193.192428 C220.007948,184.708053 206.338677,164.911178 193.140761,133.801803 C179.942844,102.692428 175.229302,62.1559697 179.000136,12.1924281 L190.312636,12.1924281 C192.198052,59.3278447 202.09649,97.5075322 220.007948,126.731491 C237.919406,155.955449 256.302219,170.567428 275.156386,170.567428 L234.148573,193.192428 Z" id="Path-5" stroke="#DCDCDC" stroke-width="8" fill="#DCDCDC" transform="translate(226.449788, 102.692428) scale(-1, 1) rotate(-26.000000) translate(-226.449788, -102.692428) "></path>
                            <polygon id="Path-6" fill="#DCDCDC" transform="translate(93.115829, 64.952298) rotate(-10.000000) translate(-93.115829, -64.952298) " points="85.1158294 123.952298 67.1158294 9.9522975 85.1158294 5.9522975 119.115829 119.952298"></polygon>
                            <polygon id="Path-6" fill="#DCDCDC" transform="translate(211.850244, 64.618510) scale(-1, 1) rotate(-10.000000) translate(-211.850244, -64.618510) " points="203.850244 123.61851 185.850244 9.61851005 203.850244 5.61851005 237.850244 119.61851"></polygon>
                            <polygon id="Path-7" fill="#DCDCDC" points="136 117 143 0 159 0 166 117"></polygon>
                        </g>
                        <g id="Group" transform="translate(431.768810, 381.487126) rotate(22.000000) translate(-431.768810, -381.487126) translate(276.768810, 71.487126)">
                            <polygon id="Path-2" fill="#DCDCDC" points="122 620 130 178 171 178 180 620"></polygon>
                            <path d="M153.413181,190.5 C108.742306,183.166667 79.7402024,166.833333 66.4068691,141.5 C46.4068691,103.5 246.406869,103.5 237.406869,141.5 C231.406869,166.833333 203.408973,183.166667 153.413181,190.5 Z" id="Path-3" fill="#DCDCDC"></path>
                            <path d="" id="Path-4" stroke="#979797"></path>
                            <path d="M91.3304462,193.682779 C77.1898212,185.198404 63.5205503,165.401529 50.3226337,134.292154 C37.124717,103.182779 32.4111753,62.6463202 36.1820087,12.6827785 L47.4945087,12.6827785 C49.3799253,59.8181952 59.2783628,97.9978827 77.1898212,127.221841 C95.1012795,156.445799 113.484092,171.057779 132.338259,171.057779 L91.3304462,193.682779 Z" id="Path-5" stroke="#DCDCDC" stroke-width="8" fill="#DCDCDC" transform="translate(83.631661, 103.182779) rotate(-26.000000) translate(-83.631661, -103.182779) "></path>
                            <path d="M234.148573,193.192428 C220.007948,184.708053 206.338677,164.911178 193.140761,133.801803 C179.942844,102.692428 175.229302,62.1559697 179.000136,12.1924281 L190.312636,12.1924281 C192.198052,59.3278447 202.09649,97.5075322 220.007948,126.731491 C237.919406,155.955449 256.302219,170.567428 275.156386,170.567428 L234.148573,193.192428 Z" id="Path-5" stroke="#DCDCDC" stroke-width="8" fill="#DCDCDC" transform="translate(226.449788, 102.692428) scale(-1, 1) rotate(-26.000000) translate(-226.449788, -102.692428) "></path>
                            <polygon id="Path-6" fill="#DCDCDC" transform="translate(93.115829, 64.952298) rotate(-10.000000) translate(-93.115829, -64.952298) " points="85.1158294 123.952298 67.1158294 9.9522975 85.1158294 5.9522975 119.115829 119.952298"></polygon>
                            <polygon id="Path-6" fill="#DCDCDC" transform="translate(211.850244, 64.618510) scale(-1, 1) rotate(-10.000000) translate(-211.850244, -64.618510) " points="203.850244 123.61851 185.850244 9.61851005 203.850244 5.61851005 237.850244 119.61851"></polygon>
                            <polygon id="Path-7" fill="#DCDCDC" points="136 117 143 0 159 0 166 117"></polygon>
                        </g>
                        <g id="Group" transform="translate(696.618364, 541.268764) rotate(46.000000) translate(-696.618364, -541.268764) translate(541.618364, 231.268764)">
                            <polygon id="Path-2" fill="#DCDCDC" points="122 620 130 178 171 178 180 620"></polygon>
                            <path d="M153.413181,190.5 C108.742306,183.166667 79.7402024,166.833333 66.4068691,141.5 C46.4068691,103.5 246.406869,103.5 237.406869,141.5 C231.406869,166.833333 203.408973,183.166667 153.413181,190.5 Z" id="Path-3" fill="#DCDCDC"></path>
                            <path d="" id="Path-4" stroke="#979797"></path>
                            <path d="M91.3304462,193.682779 C77.1898212,185.198404 63.5205503,165.401529 50.3226337,134.292154 C37.124717,103.182779 32.4111753,62.6463202 36.1820087,12.6827785 L47.4945087,12.6827785 C49.3799253,59.8181952 59.2783628,97.9978827 77.1898212,127.221841 C95.1012795,156.445799 113.484092,171.057779 132.338259,171.057779 L91.3304462,193.682779 Z" id="Path-5" stroke="#DCDCDC" stroke-width="8" fill="#DCDCDC" transform="translate(83.631661, 103.182779) rotate(-26.000000) translate(-83.631661, -103.182779) "></path>
                            <path d="M234.148573,193.192428 C220.007948,184.708053 206.338677,164.911178 193.140761,133.801803 C179.942844,102.692428 175.229302,62.1559697 179.000136,12.1924281 L190.312636,12.1924281 C192.198052,59.3278447 202.09649,97.5075322 220.007948,126.731491 C237.919406,155.955449 256.302219,170.567428 275.156386,170.567428 L234.148573,193.192428 Z" id="Path-5" stroke="#DCDCDC" stroke-width="8" fill="#DCDCDC" transform="translate(226.449788, 102.692428) scale(-1, 1) rotate(-26.000000) translate(-226.449788, -102.692428) "></path>
                            <polygon id="Path-6" fill="#DCDCDC" transform="translate(93.115829, 64.952298) rotate(-10.000000) translate(-93.115829, -64.952298) " points="85.1158294 123.952298 67.1158294 9.9522975 85.1158294 5.9522975 119.115829 119.952298"></polygon>
                            <polygon id="Path-6" fill="#DCDCDC" transform="translate(211.850244, 64.618510) scale(-1, 1) rotate(-10.000000) translate(-211.850244, -64.618510) " points="203.850244 123.61851 185.850244 9.61851005 203.850244 5.61851005 237.850244 119.61851"></polygon>
                            <polygon id="Path-7" fill="#DCDCDC" points="136 117 143 0 159 0 166 117"></polygon>
                        </g>
                    </g>
                </g>
                <g id="Group-3" transform="translate(1554.600501, 1588.018557) rotate(140.000000) translate(-1554.600501, -1588.018557) translate(578.100501, 334.518557)">
                    <g id="Group-2" transform="translate(576.894814, 0.329358)">
                        <g id="Group">
                            <polygon id="Path-2" fill="#DCDCDC" points="122 620 130 178 171 178 180 620"></polygon>
                            <path d="M153.413181,190.5 C108.742306,183.166667 79.7402024,166.833333 66.4068691,141.5 C46.4068691,103.5 246.406869,103.5 237.406869,141.5 C231.406869,166.833333 203.408973,183.166667 153.413181,190.5 Z" id="Path-3" fill="#DCDCDC"></path>
                            <path d="" id="Path-4" stroke="#979797"></path>
                            <path d="M91.3304462,193.682779 C77.1898212,185.198404 63.5205503,165.401529 50.3226337,134.292154 C37.124717,103.182779 32.4111753,62.6463202 36.1820087,12.6827785 L47.4945087,12.6827785 C49.3799253,59.8181952 59.2783628,97.9978827 77.1898212,127.221841 C95.1012795,156.445799 113.484092,171.057779 132.338259,171.057779 L91.3304462,193.682779 Z" id="Path-5" stroke="#DCDCDC" stroke-width="8" fill="#DCDCDC" transform="translate(83.631661, 103.182779) rotate(-26.000000) translate(-83.631661, -103.182779) "></path>
                            <path d="M234.148573,193.192428 C220.007948,184.708053 206.338677,164.911178 193.140761,133.801803 C179.942844,102.692428 175.229302,62.1559697 179.000136,12.1924281 L190.312636,12.1924281 C192.198052,59.3278447 202.09649,97.5075322 220.007948,126.731491 C237.919406,155.955449 256.302219,170.567428 275.156386,170.567428 L234.148573,193.192428 Z" id="Path-5" stroke="#DCDCDC" stroke-width="8" fill="#DCDCDC" transform="translate(226.449788, 102.692428) scale(-1, 1) rotate(-26.000000) translate(-226.449788, -102.692428) "></path>
                            <polygon id="Path-6" fill="#DCDCDC" transform="translate(93.115829, 64.952298) rotate(-10.000000) translate(-93.115829, -64.952298) " points="85.1158294 123.952298 67.1158294 9.9522975 85.1158294 5.9522975 119.115829 119.952298"></polygon>
                            <polygon id="Path-6" fill="#DCDCDC" transform="translate(211.850244, 64.618510) scale(-1, 1) rotate(-10.000000) translate(-211.850244, -64.618510) " points="203.850244 123.61851 185.850244 9.61851005 203.850244 5.61851005 237.850244 119.61851"></polygon>
                            <polygon id="Path-7" fill="#DCDCDC" points="136 117 143 0 159 0 166 117"></polygon>
                        </g>
                        <g id="Group" transform="translate(431.768810, 381.487126) rotate(22.000000) translate(-431.768810, -381.487126) translate(276.768810, 71.487126)">
                            <polygon id="Path-2" fill="#DCDCDC" points="122 620 130 178 171 178 180 620"></polygon>
                            <path d="M153.413181,190.5 C108.742306,183.166667 79.7402024,166.833333 66.4068691,141.5 C46.4068691,103.5 246.406869,103.5 237.406869,141.5 C231.406869,166.833333 203.408973,183.166667 153.413181,190.5 Z" id="Path-3" fill="#DCDCDC"></path>
                            <path d="" id="Path-4" stroke="#979797"></path>
                            <path d="M91.3304462,193.682779 C77.1898212,185.198404 63.5205503,165.401529 50.3226337,134.292154 C37.124717,103.182779 32.4111753,62.6463202 36.1820087,12.6827785 L47.4945087,12.6827785 C49.3799253,59.8181952 59.2783628,97.9978827 77.1898212,127.221841 C95.1012795,156.445799 113.484092,171.057779 132.338259,171.057779 L91.3304462,193.682779 Z" id="Path-5" stroke="#DCDCDC" stroke-width="8" fill="#DCDCDC" transform="translate(83.631661, 103.182779) rotate(-26.000000) translate(-83.631661, -103.182779) "></path>
                            <path d="M234.148573,193.192428 C220.007948,184.708053 206.338677,164.911178 193.140761,133.801803 C179.942844,102.692428 175.229302,62.1559697 179.000136,12.1924281 L190.312636,12.1924281 C192.198052,59.3278447 202.09649,97.5075322 220.007948,126.731491 C237.919406,155.955449 256.302219,170.567428 275.156386,170.567428 L234.148573,193.192428 Z" id="Path-5" stroke="#DCDCDC" stroke-width="8" fill="#DCDCDC" transform="translate(226.449788, 102.692428) scale(-1, 1) rotate(-26.000000) translate(-226.449788, -102.692428) "></path>
                            <polygon id="Path-6" fill="#DCDCDC" transform="translate(93.115829, 64.952298) rotate(-10.000000) translate(-93.115829, -64.952298) " points="85.1158294 123.952298 67.1158294 9.9522975 85.1158294 5.9522975 119.115829 119.952298"></polygon>
                            <polygon id="Path-6" fill="#DCDCDC" transform="translate(211.850244, 64.618510) scale(-1, 1) rotate(-10.000000) translate(-211.850244, -64.618510) " points="203.850244 123.61851 185.850244 9.61851005 203.850244 5.61851005 237.850244 119.61851"></polygon>
                            <polygon id="Path-7" fill="#DCDCDC" points="136 117 143 0 159 0 166 117"></polygon>
                        </g>
                        <g id="Group" transform="translate(679.667386, 557.841764) rotate(46.000000) translate(-679.667386, -557.841764) translate(524.667386, 247.841764)">
                            <polygon id="Path-2" fill="#DCDCDC" points="122 620 130 178 171 178 180 620"></polygon>
                            <path d="M153.413181,190.5 C108.742306,183.166667 79.7402024,166.833333 66.4068691,141.5 C46.4068691,103.5 246.406869,103.5 237.406869,141.5 C231.406869,166.833333 203.408973,183.166667 153.413181,190.5 Z" id="Path-3" fill="#DCDCDC"></path>
                            <path d="" id="Path-4" stroke="#979797"></path>
                            <path d="M91.3304462,193.682779 C77.1898212,185.198404 63.5205503,165.401529 50.3226337,134.292154 C37.124717,103.182779 32.4111753,62.6463202 36.1820087,12.6827785 L47.4945087,12.6827785 C49.3799253,59.8181952 59.2783628,97.9978827 77.1898212,127.221841 C95.1012795,156.445799 113.484092,171.057779 132.338259,171.057779 L91.3304462,193.682779 Z" id="Path-5" stroke="#DCDCDC" stroke-width="8" fill="#DCDCDC" transform="translate(83.631661, 103.182779) rotate(-26.000000) translate(-83.631661, -103.182779) "></path>
                            <path d="M234.148573,193.192428 C220.007948,184.708053 206.338677,164.911178 193.140761,133.801803 C179.942844,102.692428 175.229302,62.1559697 179.000136,12.1924281 L190.312636,12.1924281 C192.198052,59.3278447 202.09649,97.5075322 220.007948,126.731491 C237.919406,155.955449 256.302219,170.567428 275.156386,170.567428 L234.148573,193.192428 Z" id="Path-5" stroke="#DCDCDC" stroke-width="8" fill="#DCDCDC" transform="translate(226.449788, 102.692428) scale(-1, 1) rotate(-26.000000) translate(-226.449788, -102.692428) "></path>
                            <polygon id="Path-6" fill="#DCDCDC" transform="translate(93.115829, 64.952298) rotate(-10.000000) translate(-93.115829, -64.952298) " points="85.1158294 123.952298 67.1158294 9.9522975 85.1158294 5.9522975 119.115829 119.952298"></polygon>
                            <polygon id="Path-6" fill="#DCDCDC" transform="translate(211.850244, 64.618510) scale(-1, 1) rotate(-10.000000) translate(-211.850244, -64.618510) " points="203.850244 123.61851 185.850244 9.61851005 203.850244 5.61851005 237.850244 119.61851"></polygon>
                            <polygon id="Path-7" fill="#DCDCDC" points="136 117 143 0 159 0 166 117"></polygon>
                        </g>
                    </g>
                    <g id="Group-2" transform="translate(1387.339326, 1238.251225) rotate(74.000000) translate(-1387.339326, -1238.251225) translate(881.839326, 795.751225)">
                        <g id="Group">
                            <polygon id="Path-2" fill="#DCDCDC" points="122 620 130 178 171 178 180 620"></polygon>
                            <path d="M153.413181,190.5 C108.742306,183.166667 79.7402024,166.833333 66.4068691,141.5 C46.4068691,103.5 246.406869,103.5 237.406869,141.5 C231.406869,166.833333 203.408973,183.166667 153.413181,190.5 Z" id="Path-3" fill="#DCDCDC"></path>
                            <path d="" id="Path-4" stroke="#979797"></path>
                            <path d="M91.3304462,193.682779 C77.1898212,185.198404 63.5205503,165.401529 50.3226337,134.292154 C37.124717,103.182779 32.4111753,62.6463202 36.1820087,12.6827785 L47.4945087,12.6827785 C49.3799253,59.8181952 59.2783628,97.9978827 77.1898212,127.221841 C95.1012795,156.445799 113.484092,171.057779 132.338259,171.057779 L91.3304462,193.682779 Z" id="Path-5" stroke="#DCDCDC" stroke-width="8" fill="#DCDCDC" transform="translate(83.631661, 103.182779) rotate(-26.000000) translate(-83.631661, -103.182779) "></path>
                            <path d="M234.148573,193.192428 C220.007948,184.708053 206.338677,164.911178 193.140761,133.801803 C179.942844,102.692428 175.229302,62.1559697 179.000136,12.1924281 L190.312636,12.1924281 C192.198052,59.3278447 202.09649,97.5075322 220.007948,126.731491 C237.919406,155.955449 256.302219,170.567428 275.156386,170.567428 L234.148573,193.192428 Z" id="Path-5" stroke="#DCDCDC" stroke-width="8" fill="#DCDCDC" transform="translate(226.449788, 102.692428) scale(-1, 1) rotate(-26.000000) translate(-226.449788, -102.692428) "></path>
                            <polygon id="Path-6" fill="#DCDCDC" transform="translate(93.115829, 64.952298) rotate(-10.000000) translate(-93.115829, -64.952298) " points="85.1158294 123.952298 67.1158294 9.9522975 85.1158294 5.9522975 119.115829 119.952298"></polygon>
                            <polygon id="Path-6" fill="#DCDCDC" transform="translate(211.850244, 64.618510) scale(-1, 1) rotate(-10.000000) translate(-211.850244, -64.618510) " points="203.850244 123.61851 185.850244 9.61851005 203.850244 5.61851005 237.850244 119.61851"></polygon>
                            <polygon id="Path-7" fill="#DCDCDC" points="136 117 143 0 159 0 166 117"></polygon>
                        </g>
                        <g id="Group" transform="translate(431.768810, 381.487126) rotate(22.000000) translate(-431.768810, -381.487126) translate(276.768810, 71.487126)">
                            <polygon id="Path-2" fill="#DCDCDC" points="122 620 130 178 171 178 180 620"></polygon>
                            <path d="M153.413181,190.5 C108.742306,183.166667 79.7402024,166.833333 66.4068691,141.5 C46.4068691,103.5 246.406869,103.5 237.406869,141.5 C231.406869,166.833333 203.408973,183.166667 153.413181,190.5 Z" id="Path-3" fill="#DCDCDC"></path>
                            <path d="" id="Path-4" stroke="#979797"></path>
                            <path d="M91.3304462,193.682779 C77.1898212,185.198404 63.5205503,165.401529 50.3226337,134.292154 C37.124717,103.182779 32.4111753,62.6463202 36.1820087,12.6827785 L47.4945087,12.6827785 C49.3799253,59.8181952 59.2783628,97.9978827 77.1898212,127.221841 C95.1012795,156.445799 113.484092,171.057779 132.338259,171.057779 L91.3304462,193.682779 Z" id="Path-5" stroke="#DCDCDC" stroke-width="8" fill="#DCDCDC" transform="translate(83.631661, 103.182779) rotate(-26.000000) translate(-83.631661, -103.182779) "></path>
                            <path d="M234.148573,193.192428 C220.007948,184.708053 206.338677,164.911178 193.140761,133.801803 C179.942844,102.692428 175.229302,62.1559697 179.000136,12.1924281 L190.312636,12.1924281 C192.198052,59.3278447 202.09649,97.5075322 220.007948,126.731491 C237.919406,155.955449 256.302219,170.567428 275.156386,170.567428 L234.148573,193.192428 Z" id="Path-5" stroke="#DCDCDC" stroke-width="8" fill="#DCDCDC" transform="translate(226.449788, 102.692428) scale(-1, 1) rotate(-26.000000) translate(-226.449788, -102.692428) "></path>
                            <polygon id="Path-6" fill="#DCDCDC" transform="translate(93.115829, 64.952298) rotate(-10.000000) translate(-93.115829, -64.952298) " points="85.1158294 123.952298 67.1158294 9.9522975 85.1158294 5.9522975 119.115829 119.952298"></polygon>
                            <polygon id="Path-6" fill="#DCDCDC" transform="translate(211.850244, 64.618510) scale(-1, 1) rotate(-10.000000) translate(-211.850244, -64.618510) " points="203.850244 123.61851 185.850244 9.61851005 203.850244 5.61851005 237.850244 119.61851"></polygon>
                            <polygon id="Path-7" fill="#DCDCDC" points="136 117 143 0 159 0 166 117"></polygon>
                        </g>
                        <g id="Group" transform="translate(679.667386, 557.841764) rotate(46.000000) translate(-679.667386, -557.841764) translate(524.667386, 247.841764)">
                            <polygon id="Path-2" fill="#DCDCDC" points="122 620 130 178 171 178 180 620"></polygon>
                            <path d="M153.413181,190.5 C108.742306,183.166667 79.7402024,166.833333 66.4068691,141.5 C46.4068691,103.5 246.406869,103.5 237.406869,141.5 C231.406869,166.833333 203.408973,183.166667 153.413181,190.5 Z" id="Path-3" fill="#DCDCDC"></path>
                            <path d="" id="Path-4" stroke="#979797"></path>
                            <path d="M91.3304462,193.682779 C77.1898212,185.198404 63.5205503,165.401529 50.3226337,134.292154 C37.124717,103.182779 32.4111753,62.6463202 36.1820087,12.6827785 L47.4945087,12.6827785 C49.3799253,59.8181952 59.2783628,97.9978827 77.1898212,127.221841 C95.1012795,156.445799 113.484092,171.057779 132.338259,171.057779 L91.3304462,193.682779 Z" id="Path-5" stroke="#DCDCDC" stroke-width="8" fill="#DCDCDC" transform="translate(83.631661, 103.182779) rotate(-26.000000) translate(-83.631661, -103.182779) "></path>
                            <path d="M234.148573,193.192428 C220.007948,184.708053 206.338677,164.911178 193.140761,133.801803 C179.942844,102.692428 175.229302,62.1559697 179.000136,12.1924281 L190.312636,12.1924281 C192.198052,59.3278447 202.09649,97.5075322 220.007948,126.731491 C237.919406,155.955449 256.302219,170.567428 275.156386,170.567428 L234.148573,193.192428 Z" id="Path-5" stroke="#DCDCDC" stroke-width="8" fill="#DCDCDC" transform="translate(226.449788, 102.692428) scale(-1, 1) rotate(-26.000000) translate(-226.449788, -102.692428) "></path>
                            <polygon id="Path-6" fill="#DCDCDC" transform="translate(93.115829, 64.952298) rotate(-10.000000) translate(-93.115829, -64.952298) " points="85.1158294 123.952298 67.1158294 9.9522975 85.1158294 5.9522975 119.115829 119.952298"></polygon>
                            <polygon id="Path-6" fill="#DCDCDC" transform="translate(211.850244, 64.618510) scale(-1, 1) rotate(-10.000000) translate(-211.850244, -64.618510) " points="203.850244 123.61851 185.850244 9.61851005 203.850244 5.61851005 237.850244 119.61851"></polygon>
                            <polygon id="Path-7" fill="#DCDCDC" points="136 117 143 0 159 0 166 117"></polygon>
                        </g>
                    </g>
                    <g id="Group-2" transform="translate(694.203217, 1819.854358) rotate(140.000000) translate(-694.203217, -1819.854358) translate(175.203217, 1358.854358)">
                        <g id="Group">
                            <polygon id="Path-2" fill="#DCDCDC" points="122 620 130 178 171 178 180 620"></polygon>
                            <path d="M153.413181,190.5 C108.742306,183.166667 79.7402024,166.833333 66.4068691,141.5 C46.4068691,103.5 246.406869,103.5 237.406869,141.5 C231.406869,166.833333 203.408973,183.166667 153.413181,190.5 Z" id="Path-3" fill="#DCDCDC"></path>
                            <path d="" id="Path-4" stroke="#979797"></path>
                            <path d="M91.3304462,193.682779 C77.1898212,185.198404 63.5205503,165.401529 50.3226337,134.292154 C37.124717,103.182779 32.4111753,62.6463202 36.1820087,12.6827785 L47.4945087,12.6827785 C49.3799253,59.8181952 59.2783628,97.9978827 77.1898212,127.221841 C95.1012795,156.445799 113.484092,171.057779 132.338259,171.057779 L91.3304462,193.682779 Z" id="Path-5" stroke="#DCDCDC" stroke-width="8" fill="#DCDCDC" transform="translate(83.631661, 103.182779) rotate(-26.000000) translate(-83.631661, -103.182779) "></path>
                            <path d="M234.148573,193.192428 C220.007948,184.708053 206.338677,164.911178 193.140761,133.801803 C179.942844,102.692428 175.229302,62.1559697 179.000136,12.1924281 L190.312636,12.1924281 C192.198052,59.3278447 202.09649,97.5075322 220.007948,126.731491 C237.919406,155.955449 256.302219,170.567428 275.156386,170.567428 L234.148573,193.192428 Z" id="Path-5" stroke="#DCDCDC" stroke-width="8" fill="#DCDCDC" transform="translate(226.449788, 102.692428) scale(-1, 1) rotate(-26.000000) translate(-226.449788, -102.692428) "></path>
                            <polygon id="Path-6" fill="#DCDCDC" transform="translate(93.115829, 64.952298) rotate(-10.000000) translate(-93.115829, -64.952298) " points="85.1158294 123.952298 67.1158294 9.9522975 85.1158294 5.9522975 119.115829 119.952298"></polygon>
                            <polygon id="Path-6" fill="#DCDCDC" transform="translate(211.850244, 64.618510) scale(-1, 1) rotate(-10.000000) translate(-211.850244, -64.618510) " points="203.850244 123.61851 185.850244 9.61851005 203.850244 5.61851005 237.850244 119.61851"></polygon>
                            <polygon id="Path-7" fill="#DCDCDC" points="136 117 143 0 159 0 166 117"></polygon>
                        </g>
                        <g id="Group" transform="translate(431.768810, 381.487126) rotate(22.000000) translate(-431.768810, -381.487126) translate(276.768810, 71.487126)">
                            <polygon id="Path-2" fill="#DCDCDC" points="122 620 130 178 171 178 180 620"></polygon>
                            <path d="M153.413181,190.5 C108.742306,183.166667 79.7402024,166.833333 66.4068691,141.5 C46.4068691,103.5 246.406869,103.5 237.406869,141.5 C231.406869,166.833333 203.408973,183.166667 153.413181,190.5 Z" id="Path-3" fill="#DCDCDC"></path>
                            <path d="" id="Path-4" stroke="#979797"></path>
                            <path d="M91.3304462,193.682779 C77.1898212,185.198404 63.5205503,165.401529 50.3226337,134.292154 C37.124717,103.182779 32.4111753,62.6463202 36.1820087,12.6827785 L47.4945087,12.6827785 C49.3799253,59.8181952 59.2783628,97.9978827 77.1898212,127.221841 C95.1012795,156.445799 113.484092,171.057779 132.338259,171.057779 L91.3304462,193.682779 Z" id="Path-5" stroke="#DCDCDC" stroke-width="8" fill="#DCDCDC" transform="translate(83.631661, 103.182779) rotate(-26.000000) translate(-83.631661, -103.182779) "></path>
                            <path d="M234.148573,193.192428 C220.007948,184.708053 206.338677,164.911178 193.140761,133.801803 C179.942844,102.692428 175.229302,62.1559697 179.000136,12.1924281 L190.312636,12.1924281 C192.198052,59.3278447 202.09649,97.5075322 220.007948,126.731491 C237.919406,155.955449 256.302219,170.567428 275.156386,170.567428 L234.148573,193.192428 Z" id="Path-5" stroke="#DCDCDC" stroke-width="8" fill="#DCDCDC" transform="translate(226.449788, 102.692428) scale(-1, 1) rotate(-26.000000) translate(-226.449788, -102.692428) "></path>
                            <polygon id="Path-6" fill="#DCDCDC" transform="translate(93.115829, 64.952298) rotate(-10.000000) translate(-93.115829, -64.952298) " points="85.1158294 123.952298 67.1158294 9.9522975 85.1158294 5.9522975 119.115829 119.952298"></polygon>
                            <polygon id="Path-6" fill="#DCDCDC" transform="translate(211.850244, 64.618510) scale(-1, 1) rotate(-10.000000) translate(-211.850244, -64.618510) " points="203.850244 123.61851 185.850244 9.61851005 203.850244 5.61851005 237.850244 119.61851"></polygon>
                            <polygon id="Path-7" fill="#DCDCDC" points="136 117 143 0 159 0 166 117"></polygon>
                        </g>
                        <g id="Group" transform="translate(693.579967, 619.652704) rotate(56.000000) translate(-693.579967, -619.652704) translate(538.579967, 309.652704)">
                            <polygon id="Path-2" fill="#DCDCDC" points="122 620 130 178 171 178 180 620"></polygon>
                            <path d="M153.413181,190.5 C108.742306,183.166667 79.7402024,166.833333 66.4068691,141.5 C46.4068691,103.5 246.406869,103.5 237.406869,141.5 C231.406869,166.833333 203.408973,183.166667 153.413181,190.5 Z" id="Path-3" fill="#DCDCDC"></path>
                            <path d="" id="Path-4" stroke="#979797"></path>
                            <path d="M91.3304462,193.682779 C77.1898212,185.198404 63.5205503,165.401529 50.3226337,134.292154 C37.124717,103.182779 32.4111753,62.6463202 36.1820087,12.6827785 L47.4945087,12.6827785 C49.3799253,59.8181952 59.2783628,97.9978827 77.1898212,127.221841 C95.1012795,156.445799 113.484092,171.057779 132.338259,171.057779 L91.3304462,193.682779 Z" id="Path-5" stroke="#DCDCDC" stroke-width="8" fill="#DCDCDC" transform="translate(83.631661, 103.182779) rotate(-26.000000) translate(-83.631661, -103.182779) "></path>
                            <path d="M234.148573,193.192428 C220.007948,184.708053 206.338677,164.911178 193.140761,133.801803 C179.942844,102.692428 175.229302,62.1559697 179.000136,12.1924281 L190.312636,12.1924281 C192.198052,59.3278447 202.09649,97.5075322 220.007948,126.731491 C237.919406,155.955449 256.302219,170.567428 275.156386,170.567428 L234.148573,193.192428 Z" id="Path-5" stroke="#DCDCDC" stroke-width="8" fill="#DCDCDC" transform="translate(226.449788, 102.692428) scale(-1, 1) rotate(-26.000000) translate(-226.449788, -102.692428) "></path>
                            <polygon id="Path-6" fill="#DCDCDC" transform="translate(93.115829, 64.952298) rotate(-10.000000) translate(-93.115829, -64.952298) " points="85.1158294 123.952298 67.1158294 9.9522975 85.1158294 5.9522975 119.115829 119.952298"></polygon>
                            <polygon id="Path-6" fill="#DCDCDC" transform="translate(211.850244, 64.618510) scale(-1, 1) rotate(-10.000000) translate(-211.850244, -64.618510) " points="203.850244 123.61851 185.850244 9.61851005 203.850244 5.61851005 237.850244 119.61851"></polygon>
                            <polygon id="Path-7" fill="#DCDCDC" points="136 117 143 0 159 0 166 117"></polygon>
                        </g>
                    </g>
                </g>
                <path d="" id="Path-8" stroke="#979797"></path>
                <path d="" id="Path-11" stroke="#979797"></path>
                <g id="Group-4" transform="translate(1400.000000, 2721.000000)" fill="#DCDCDC">
                    <path d="M24,206.986599 C54.2139406,122.056192 103.929607,63.4268143 173.146998,31.0984657 C242.364389,-1.22988283 325.31539,-8.35307827 422,9.72887939 C328.062112,10.8247556 249.780538,31.6464038 187.15528,72.193824 C124.530021,112.741244 70.1449275,165.343303 24,230 L24,206.986599 Z" id="Path-10"></path>
                    <path d="M7,282 C60.8118949,201.977629 122.860304,141.138702 193.145228,99.4832215 C263.430152,57.8277405 333.715076,37 404,37 C369.406639,154.293065 303.239972,224.449664 205.5,247.469799 C107.760028,270.489933 41.593361,282 7,282 Z" id="Path-12" transform="translate(205.500000, 159.500000) rotate(3.000000) translate(-205.500000, -159.500000) "></path>
                </g>
                <g id="Group-5" transform="translate(1259.000000, 2506.000000)" fill="#DCDCDC">
                    <path d="M152.428571,269 C85.0952381,252.333333 41.4285714,213.666667 21.4285714,153 C1.42857143,92.3333333 -4.57142857,46.6666667 3.42857143,16 C97.4285714,39.3333333 163.761905,92 202.428571,174 C241.095238,256 224.428571,287.666667 152.428571,269 Z" id="Path-14"></path>
                    <path d="M19,-4.54747351e-13 C61,10.6666667 100,27.3333333 136,50 C163.195316,67.1229765 182.211062,80.8219474 193.047241,91.0969129 L193.047255,91.0968977 C195.832247,93.7376533 200.230685,93.6207264 202.87144,90.8357343 C203.632135,90.0334913 204.190445,89.0613319 204.5,88 L204.5,88 L204.5,88 C206.768355,80.2227817 204.313218,71.8361862 198.208909,66.5100267 C183.130596,53.3538459 162.394296,40.8505001 136,29 C103.333333,14.3333333 64.3333333,4.66666667 19,-4.54747351e-13 Z" id="Path-15"></path>
                </g>
                <circle id="Oval" fill="#DCDCDC" cx="1898" cy="1525" r="479"></circle>
                <path d="" id="Path-9" stroke="#979797"></path>
            </g>
        </g>
    </g>
</svg>