<?xml version="1.0" encoding="UTF-8"?>
<svg width="377px" height="357px" viewBox="0 0 377 357" version="1.1" xmlns="http://www.w3.org/2000/svg" xmlns:xlink="http://www.w3.org/1999/xlink">
    <!-- Generator: Sketch 46 (44423) - http://www.bohemiancoding.com/sketch -->
    <title>Group 4</title>
    <desc>Created with Sketch.</desc>
    <defs></defs>
    <g id="Page-1" stroke="none" stroke-width="1" fill="none" fill-rule="evenodd">
        <g id="Artboard-4" transform="translate(-2120.000000, -435.000000)">
            <g id="Group-4" transform="translate(2120.000000, 435.000000)">
                <polygon id="Path-13" fill="#E5A651" points="0 357 51 238 122 238 71 357"></polygon>
                <polygon id="Path-13" fill="#FFD69F" transform="translate(112.000000, 297.500000) scale(-1, 1) translate(-112.000000, -297.500000) " points="51 357 102 238 173 238 122 357"></polygon>
                <polygon id="Path-13" fill="#E5A651" points="102 357 153 238 224 238 173 357"></polygon>
                <polygon id="Path-13" fill="#FFD69F" transform="translate(214.000000, 297.500000) scale(-1, 1) translate(-214.000000, -297.500000) " points="153 357 204 238 275 238 224 357"></polygon>
                <polygon id="Path-13" fill="#E5A651" points="51 238 102 119 173 119 122 238"></polygon>
                <polygon id="Path-13" fill="#FFD69F" transform="translate(163.000000, 178.500000) scale(-1, 1) translate(-163.000000, -178.500000) " points="102 238 153 119 224 119 173 238"></polygon>
                <polygon id="Path-13" fill="#E5A651" points="102 119 153 0 224 0 173 119"></polygon>
                <polygon id="Path-13" fill="#FFD69F" transform="translate(214.000000, 59.500000) scale(-1, 1) translate(-214.000000, -59.500000) " points="153 119 204 0 275 0 224 119"></polygon>
                <polygon id="Path-13" fill="#E5A651" points="153 238 204 119 275 119 224 238"></polygon>
                <polygon id="Path-13" fill="#FFD69F" transform="translate(265.000000, 178.500000) scale(-1, 1) translate(-265.000000, -178.500000) " points="204 238 255 119 326 119 275 238"></polygon>
                <polygon id="Path-13" fill="#E5A651" points="204 357 255 238 326 238 275 357"></polygon>
                <polygon id="Path-13" fill="#FFD69F" transform="translate(316.000000, 297.500000) scale(-1, 1) translate(-316.000000, -297.500000) " points="255 357 306 238 377 238 326 357"></polygon>
                <path d="" id="Path-14" stroke="#979797"></path>
            </g>
        </g>
    </g>
</svg>