<?xml version="1.0" encoding="UTF-8"?>
<svg width="421px" height="405px" viewBox="0 0 421 405" version="1.1" xmlns="http://www.w3.org/2000/svg" xmlns:xlink="http://www.w3.org/1999/xlink">
    <!-- Generator: Sketch 46 (44423) - http://www.bohemiancoding.com/sketch -->
    <title>Group</title>
    <desc>Created with Sketch.</desc>
    <defs></defs>
    <g id="Page-1" stroke="none" stroke-width="1" fill="none" fill-rule="evenodd">
        <g id="Artboard-3" transform="translate(-235.000000, -101.000000)">
            <g id="Group" transform="translate(234.000000, 101.000000)">
                <path d="M40.8893998,148.61259 L381.356357,154.238794 L388.739306,78.4532066 C388.948244,76.3084739 389.052897,74.1548717 389.052897,72 C389.052897,35.2185917 359.215657,5.4 322.407869,5.4 L101.720546,5.4 C99.9796053,5.4 98.2393332,5.46817072 96.5037347,5.60435526 C59.8091017,8.48361639 32.3991694,40.5443865 35.2799701,77.2127616 L40.8893998,148.61259 Z" id="Rectangle-37" stroke="#FFBEA0" stroke-width="10.8"></path>
                <path d="M128.08191,422.4 L128.08191,422.4 M70.6408874,369.076558 L70.6408874,369.076558 L49.1989147,81.0765584 L49.1989147,81.0765584 C46.8370367,49.3527578 70.639578,21.7208557 102.363379,19.3589777 C103.786437,19.2530291 105.21294,19.2 106.639937,19.2 L106.639937,19.2 L317.639708,19.2 L317.639708,19.2 C349.45131,19.2 375.239708,44.9883984 375.239708,76.8 C375.239708,78.5678384 375.158321,80.3347396 374.995806,82.0950923 L349.010912,363.561792 L348.40776,370.095092 L348.40776,370.095092" id="Rectangle-37" fill="#FFCD7E"></path>
                <ellipse id="Oval-25" fill="#FBFBFB" cx="156.969981" cy="196.2" rx="36.6228893" ry="36.6"></ellipse>
                <ellipse id="Oval-25" fill="#FBFBFB" cx="260.242026" cy="196.2" rx="36.6228893" ry="36.6"></ellipse>
                <ellipse id="Oval-26" fill="#484848" cx="260.242026" cy="210.6" rx="13.8086304" ry="13.8"></ellipse>
                <ellipse id="Oval-26" fill="#484848" cx="156.969981" cy="210.6" rx="13.8086304" ry="13.8"></ellipse>
                <polygon id="Path-2" stroke="#FFCD7E" stroke-width="31.2" fill="#FFCD7E" stroke-linejoin="round" points="339.485929 264 394.72045 333.6 317.87242 369.6"></polygon>
                <polygon id="Path-2" stroke="#FFCD7E" stroke-width="31.2" fill="#FFCD7E" stroke-linejoin="round" transform="translate(57.309568, 313.200000) scale(-1, 1) translate(-57.309568, -313.200000) " points="40.4990619 260.4 95.7335835 330 18.8855535 366"></polygon>
                <path d="M33.8939727,219.6 L388.761577,219.6 L388.761577,219.6 C404.667378,219.6 417.561577,232.494199 417.561577,248.4 C417.561577,251.758655 416.974081,255.091424 415.82565,258.247636 L369.542177,385.447636 L369.542177,385.447636 C365.401908,396.826261 354.58657,404.4 342.478104,404.4 L67.7800866,404.4 L67.7800866,404.4 C54.729563,404.4 43.3101714,395.624471 39.9506755,383.013763 L6.0645616,255.813763 L6.0645616,255.813763 C1.97005361,240.444003 11.1104508,224.665097 26.4802102,220.570589 C28.8987896,219.926279 31.391042,219.6 33.8939727,219.6 Z" id="Rectangle-38" fill="#CECECE"></path>
                <ellipse id="Oval-24" fill="#FFFFFF" transform="translate(209.719084, 283.114259) rotate(45.000000) translate(-209.719084, -283.114259) " cx="209.719084" cy="283.114259" rx="4.04228833" ry="6.02132034"></ellipse>
                <path d="M224.585273,301.594948 C221.359494,298.151694 216.770175,296 211.677986,296 C201.914704,296 194,303.909757 194,313.666937 C194,323.424117 201.914704,331.333874 211.677986,331.333874 C219.436254,331.333874 226.02724,326.339271 228.407129,319.391976 C227.847137,319.499577 227.268896,319.555916 226.677489,319.555916 C221.64792,319.555916 217.570648,315.481193 217.570648,310.454767 C217.570648,306.147866 220.564159,302.5397 224.585273,301.594948 Z" id="Combined-Shape" stroke="#FFFFFF" stroke-width="2.20000005" fill="#FFFFFF" stroke-linejoin="round"></path>
                <path d="M367.45444,114.350345 L395.0717,114.350345 C402.366418,114.350345 408.279956,120.260186 408.279956,127.550345 L408.279956,194.750345 C408.279956,202.040504 402.366418,207.950345 395.0717,207.950345 L368.65519,207.950345 L367.45444,207.950345" id="Rectangle-39" fill="#FF8C56" transform="translate(387.867198, 161.150345) rotate(5.000000) translate(-387.867198, -161.150345) "></path>
                <path d="M408.287547,140.564522 L416.210719,140.564522 C418.303516,140.564522 420.000063,143.146992 420.000063,146.33263 L420.000063,175.697544 C420.000063,178.883183 418.303516,181.465653 416.210719,181.465653 L408.632033,181.465653 L408.287547,181.465653" id="Rectangle-39" fill="#FFD899" transform="translate(414.143805, 161.015087) rotate(5.000000) translate(-414.143805, -161.015087) "></path>
                <path d="M2.71753074,141.210979 L10.6407032,141.210979 C12.7334997,141.210979 14.4300465,143.793449 14.4300465,146.979088 L14.4300465,176.344002 C14.4300465,179.52964 12.7334997,182.11211 10.6407032,182.11211 L3.0620165,182.11211 L2.71753074,182.11211" id="Rectangle-39" fill="#FFD899" transform="translate(8.573789, 161.661545) scale(-1, 1) rotate(5.000000) translate(-8.573789, -161.661545) "></path>
                <path d="M14.4840631,114.350705 L14.4840631,114.350705 L14.4840631,114.350705 L42.1013239,114.350705 L42.1013239,114.350705 C49.3960418,114.350705 55.3095791,120.260546 55.3095791,127.550705 L55.3095791,194.750705 L55.3095791,194.750705 C55.3095791,202.040863 49.3960418,207.950705 42.1013239,207.950705 L15.6848136,207.950705 L14.4840631,207.950705 L14.4840631,207.950705" id="Rectangle-39" fill="#FF8C56" transform="translate(34.896821, 161.150705) scale(-1, 1) rotate(5.000000) translate(-34.896821, -161.150705) "></path>
            </g>
        </g>
    </g>
</svg>