<?xml version="1.0" encoding="UTF-8"?>
<svg width="690px" height="1564px" viewBox="0 0 690 1564" version="1.1" xmlns="http://www.w3.org/2000/svg" xmlns:xlink="http://www.w3.org/1999/xlink">
    <!-- Generator: Sketch 46 (44423) - http://www.bohemiancoding.com/sketch -->
    <title>Group</title>
    <desc>Created with Sketch.</desc>
    <defs></defs>
    <g id="Page-1" stroke="none" stroke-width="1" fill="none" fill-rule="evenodd">
        <g id="Artboard-3" transform="translate(-1400.000000, -2233.000000)">
            <g id="Group" transform="translate(1389.000000, 2233.000000)">
                <path d="M348,1564 C434,1428.11307 477,1338.4464 477,1295 C477,1229.8304 424.1696,1177 359,1177 C293.8304,1177 241,1229.8304 241,1295 C241,1338.4464 276.666667,1428.11307 348,1564 Z" id="Oval-5" fill="#FFFFFF" opacity="0.416723279"></path>
                <path d="M350.423729,1498 C417.474576,1391.95903 451,1321.9866 451,1288.08269 C451,1237.22682 409.810197,1196 359,1196 C308.189803,1196 267,1237.22682 267,1288.08269 C267,1321.9866 294.80791,1391.95903 350.423729,1498 Z" id="Oval-5" fill="#FFFFFF" opacity="0.416723279"></path>
                <path d="M352.754237,1430 C401.584746,1352.75161 426,1301.77832 426,1277.0801 C426,1240.03279 396.003078,1210 359,1210 C321.996922,1210 292,1240.03279 292,1277.0801 C292,1301.77832 312.251412,1352.75161 352.754237,1430 Z" id="Oval-5" fill="#FFFFFF" opacity="0.416723279"></path>
                <path d="M252,1123 C136,961 76.6666667,787.666667 74,603 C71.3333333,418.333333 170,217.333333 370,0 C533.333333,206.666667 620.666667,407.666667 632,603 C643.333333,798.333333 581.333333,971.666667 446,1123 L252,1123 Z M363,577 C407.735065,577 444,540.735065 444,496 C444,451.264935 407.735065,415 363,415 C318.264935,415 282,451.264935 282,496 C282,540.735065 318.264935,577 363,577 Z" id="Combined-Shape" fill="#FFFFFF" opacity="0.45923913"></path>
                <path d="M283.462587,1123 C197.815664,961 154.007755,787.666667 152.03886,603 C150.069965,418.333333 222.919072,217.333333 370.586182,0 C491.180988,206.666667 555.662293,407.666667 564.030096,603 C572.397898,798.333333 526.621094,971.666667 426.699684,1123 L283.462587,1123 Z M362.5,577 C406.958922,577 443,540.958922 443,496.5 C443,452.041078 406.958922,416 362.5,416 C318.041078,416 282,452.041078 282,496.5 C282,540.958922 318.041078,577 362.5,577 Z" id="Combined-Shape" fill="#FFFFFF" opacity="0.45923913"></path>
                <path d="M314.262376,1123 C258.063063,961 229.317437,787.666667 228.025499,603 C226.733561,418.333333 274.535275,217.333333 371.430642,0 C450.561859,206.666667 492.872836,407.666667 498.363574,603 C503.854311,798.333333 473.816747,971.666667 408.250882,1123 L314.262376,1123 Z M363.5,589 C414.586339,589 456,547.586339 456,496.5 C456,445.413661 414.586339,404 363.5,404 C312.413661,404 271,445.413661 271,496.5 C271,547.586339 312.413661,589 363.5,589 Z" id="Combined-Shape" fill="#FFFFFF" opacity="0.45923913"></path>
                <path d="M227.358213,176.507635 C253.89306,138.115963 301.440323,79.2800848 370,0 C427.709959,77.8773383 467.933476,136.057262 490.670551,174.539772 C440,230 282,225 227.358213,176.507635 Z" id="Path-18" fill="#FFFFFF" opacity="0.522758152"></path>
                <path d="" id="Path-19" stroke="#979797"></path>
                <path d="M13.3902439,1049 C34.0569106,1021.66667 52.0569106,994.333333 67.3902439,967 C82.7235772,939.666667 98.0569106,900.333333 113.390244,849 C160.056911,922.333333 183.390244,986.666667 183.390244,1042 C183.390244,1097.33333 166.723577,1168.66667 133.390244,1256 C134.723577,1196.66667 112.723577,1144.66667 67.3902439,1100 C22.0569106,1055.33333 4.05691057,1038.33333 13.3902439,1049 Z" id="Path-20" fill="#FFFFFF" opacity="0.510133605" transform="translate(97.195122, 1052.500000) scale(-1, 1) rotate(-3.000000) translate(-97.195122, -1052.500000) "></path>
                <path d="" id="Path-17" stroke="#979797"></path>
                <path d="M531,1049 C551.666667,1021.66667 569.666667,994.333333 585,967 C600.333333,939.666667 615.666667,900.333333 631,849 C677.666667,922.333333 701,986.666667 701,1042 C701,1097.33333 684.333333,1168.66667 651,1256 C652.333333,1196.66667 630.333333,1144.66667 585,1100 C539.666667,1055.33333 521.666667,1038.33333 531,1049 Z" id="Path-20" fill="#FFFFFF" opacity="0.510133605"></path>
            </g>
        </g>
    </g>
</svg>